HIERARCHY
ROOT hip
{
  OFFSET 0 0 0
  CHANNELS 6 Xposition Yposition Zposition Zrotation Yrotation Xrotation
  JOINT abdomen
  {
    OFFSET 0 20.6881 -0.73152
    CHANNELS 3 Zrotation Xrotation Yrotation
    JOINT chest
    {
      OFFSET 0 11.7043 -0.48768
      CHANNELS 3 Zrotation Xrotation Yrotation
      JOINT neck
      {
        OFFSET 0 22.1894 -2.19456
        CHANNELS 3 Zrotation Xrotation Yrotation
        JOINT head
        {
          OFFSET -0.24384 7.07133 1.2192
          CHANNELS 3 Zrotation Xrotation Yrotation
          JOINT leftEye
          {
            OFFSET 4.14528 8.04674 8.04672
            CHANNELS 3 Zrotation Xrotation Yrotation
            End Site
            {
              OFFSET 1 0 0
            }
          }
          JOINT rightEye
          {
            OFFSET -3.6576 8.04674 8.04672
            CHANNELS 3 Zrotation Xrotation Yrotation
            End Site
            {
              OFFSET 1 0 0
            }
          }
        }
      }
      JOINT rCollar
      {
        OFFSET -2.68224 19.2634 -4.8768
        CHANNELS 3 Zrotation Xrotation Yrotation
        JOINT rShldr
        {
          OFFSET -8.77824 -1.95073 1.46304
          CHANNELS 3 Zrotation Xrotation Yrotation
          JOINT rForeArm
          {
            OFFSET -28.1742 -1.7115 0.48768
            CHANNELS 3 Zrotation Xrotation Yrotation
            JOINT rHand
            {
              OFFSET -22.5879 0.773209 7.07136
              CHANNELS 3 Zrotation Xrotation Yrotation
              JOINT rThumb1
              {
                OFFSET -1.2192 -0.487915 3.41376
                CHANNELS 3 Zrotation Xrotation Yrotation
                JOINT rThumb2
                {
                  OFFSET -3.37035 -0.52449 3.41376
                  CHANNELS 3 Zrotation Xrotation Yrotation
                  End Site
                  {
                    OFFSET -1.78271 -1.18214 1.43049
                  }
                }
              }
              JOINT rIndex1
              {
                OFFSET -7.75947 0.938293 5.60832
                CHANNELS 3 Zrotation Xrotation Yrotation
                JOINT rIndex2
                {
                  OFFSET -2.54057 -0.884171 1.56538
                  CHANNELS 3 Zrotation Xrotation Yrotation
                  End Site
                  {
                    OFFSET -1.62519 -0.234802 1.16502
                  }
                }
              }
              JOINT rMid1
              {
                OFFSET -8.24714 1.18213 3.41376
                CHANNELS 3 Zrotation Xrotation Yrotation
                JOINT rMid2
                {
                  OFFSET -3.10165 -0.590103 1.0647
                  CHANNELS 3 Zrotation Xrotation Yrotation
                  End Site
                  {
                    OFFSET -2.48547 -0.328903 0.83742
                  }
                }
              }
              JOINT rRing1
              {
                OFFSET -8.82822 0.546677 1.51678
                CHANNELS 3 Zrotation Xrotation Yrotation
                JOINT rRing2
                {
                  OFFSET -2.60934 -0.819778 -0.0198488
                  CHANNELS 3 Zrotation Xrotation Yrotation
                  End Site
                  {
                    OFFSET -2.33842 -0.294052 0.168128
                  }
                }
              }
              JOINT rPinky1
              {
                OFFSET -8.27202 -0.0477905 -0.4584
                CHANNELS 3 Zrotation Xrotation Yrotation
                JOINT rPinky2
                {
                  OFFSET -1.82734 -0.647385 -0.700984
                  CHANNELS 3 Zrotation Xrotation Yrotation
                  End Site
                  {
                    OFFSET -1.69225 -0.51767 -0.607171
                  }
                }
              }
            }
          }
        }
      }
      JOINT lCollar
      {
        OFFSET 2.68224 19.2634 -4.8768
        CHANNELS 3 Zrotation Xrotation Yrotation
        JOINT lShldr
        {
          OFFSET 8.77824 -1.95073 1.46304
          CHANNELS 3 Zrotation Xrotation Yrotation
          JOINT lForeArm
          {
            OFFSET 28.1742 -1.7115 0.48768
            CHANNELS 3 Zrotation Xrotation Yrotation
            JOINT lHand
            {
              OFFSET 22.5879 0.773209 7.07136
              CHANNELS 3 Zrotation Xrotation Yrotation
              JOINT lThumb1
              {
                OFFSET 1.2192 -0.487915 3.41376
                CHANNELS 3 Zrotation Xrotation Yrotation
                JOINT lThumb2
                {
                  OFFSET 3.37035 -0.52449 3.41376
                  CHANNELS 3 Zrotation Xrotation Yrotation
                  End Site
                  {
                    OFFSET 1.78271 -1.18214 1.43049
                  }
                }
              }
              JOINT lIndex1
              {
                OFFSET 7.75947 0.938293 5.60832
                CHANNELS 3 Zrotation Xrotation Yrotation
                JOINT lIndex2
                {
                  OFFSET 2.54057 -0.884171 1.56538
                  CHANNELS 3 Zrotation Xrotation Yrotation
                  End Site
                  {
                    OFFSET 1.62519 -0.234802 1.16502
                  }
                }
              }
              JOINT lMid1
              {
                OFFSET 8.24714 1.18213 3.41376
                CHANNELS 3 Zrotation Xrotation Yrotation
                JOINT lMid2
                {
                  OFFSET 3.10165 -0.590103 1.0647
                  CHANNELS 3 Zrotation Xrotation Yrotation
                  End Site
                  {
                    OFFSET 2.48547 -0.328903 0.83742
                  }
                }
              }
              JOINT lRing1
              {
                OFFSET 8.82822 0.546677 1.51678
                CHANNELS 3 Zrotation Xrotation Yrotation
                JOINT lRing2
                {
                  OFFSET 2.60934 -0.819778 -0.0198488
                  CHANNELS 3 Zrotation Xrotation Yrotation
                  End Site
                  {
                    OFFSET 2.33842 -0.294052 0.168128
                  }
                }
              }
              JOINT lPinky1
              {
                OFFSET 8.27202 -0.0477905 -0.4584
                CHANNELS 3 Zrotation Xrotation Yrotation
                JOINT lPinky2
                {
                  OFFSET 1.82734 -0.647385 -0.700984
                  CHANNELS 3 Zrotation Xrotation Yrotation
                  End Site
                  {
                    OFFSET 1.69225 -0.51767 -0.607171
                  }
                }
              }
            }
          }
        }
      }
    }
  }
  JOINT rButtock
  {
    OFFSET -8.77824 4.35084 1.2192
    CHANNELS 3 Zrotation Xrotation Yrotation
    JOINT rThigh
    {
      OFFSET 0 -1.70687 -2.19456
      CHANNELS 3 Zrotation Xrotation Yrotation
      JOINT rShin
      {
        OFFSET 0 -36.8199 0.73152
        CHANNELS 3 Zrotation Xrotation Yrotation
        JOINT rFoot
        {
          OFFSET 0.73152 -45.1104 -5.12064
          CHANNELS 3 Zrotation Xrotation Yrotation
          End Site
          {
            OFFSET -1.1221 -3.69964 12.103
          }
        }
      }
    }
  }
  JOINT lButtock
  {
    OFFSET 8.77824 4.35084 1.2192
    CHANNELS 3 Zrotation Xrotation Yrotation
    JOINT lThigh
    {
      OFFSET 0 -1.70687 -2.19456
      CHANNELS 3 Zrotation Xrotation Yrotation
      JOINT lShin
      {
        OFFSET 0 -36.8199 0.73152
        CHANNELS 3 Zrotation Xrotation Yrotation
        JOINT lFoot
        {
          OFFSET -0.73152 -45.1104 -5.12064
          CHANNELS 3 Zrotation Xrotation Yrotation
          End Site
          {
            OFFSET 1.1221 -3.69964 12.103
          }
        }
      }
    }
  }
}
MOTION
Frames:	7
Frame Time:	0.03333
0.0 0.0 0.0 0.0 0.0 0.0 0.0 0.0 0.0 0.0 0.0 0.0 0.0 0.0 0.0 0.0 0.0 0.0 0.0 0.0 0.0 0.0 0.0 0.0 0.0 0.0 0.0 0.0 0.0 0.0 0.0 0.0 0.0 0.0 0.0 0.0 0.0 0.0 0.0 0.0 0.0 0.0 0.0 0.0 0.0 0.0 0.0 0.0 0.0 0.0 0.0 0.0 0.0 0.0 0.0 0.0 0.0 0.0 0.0 0.0 0.0 0.0 0.0 0.0 0.0 0.0 0.0 0.0 0.0 0.0 0.0 0.0 0.0 0.0 0.0 0.0 0.0 0.0 0.0 0.0 0.0 0.0 0.0 0.0 0.0 0.0 0.0 0.0 0.0 0.0 0.0 0.0 0.0 0.0 0.0 0.0 0.0 0.0 0.0 0.0 0.0 0.0 0.0 0.0 0.0 0.0 0.0 0.0 0.0 0.0 0.0 0.0 0.0 0.0 0.0 0.0 0.0 0.0 0.0 0.0 0.0 0.0 0.0 0.0 0.0 0.0 0.0 0.0 0.0 0.0 0.0 0.0
-0.8342999999999999 57.6132 -4.1894 170.710467 -35.811191 -166.027992 -5.545276 6.930909 -111.149518 6.649206 4.926916 101.538492 -13.754388 24.523499 -87.820339 43.55889 10.342826 69.994728 -0.000556 -0.0 0.004988 -0.001389 0.0 -0.000527 -159.221117 -48.724982 170.567621 -22.466917 18.428132 -11.365353 21.879934 -71.427664 -100.921961 171.045866 -17.864858 143.53176 16.054112 -15.915674 -0.228581 -28.086306 24.513961 15.985102 11.981498 -21.346854 -5.060773 -156.128514 -9.420874 110.806689 -36.036446 51.723421 29.83127 29.661341 -60.159955 6.55519 -72.759309 -72.1422 -89.772718 14.057745 27.425616 -0.912358 -23.392126 -36.349852 -22.491727 -40.728522 -50.145168 -41.747785 9.651945 34.836135 -11.199351 76.562448 8.123359 -101.518032 163.544899 -28.896099 76.481096 5.358879 -12.054704 3.690075 -114.538601 -50.24524 -55.721758 16.525683 -55.474091 30.793842 -15.557701 -27.95088 5.749526 -4.46924 14.176858 -1.683999 10.976051 25.789876 -7.639937 170.195519 -26.268365 -144.278774 72.131814 72.974577 -89.989688 -5.053376 28.72657 0.58595 124.850593 -29.037353 122.620247 151.92268 28.023446 145.210112 0.0 0.000627 -0.000434 -54.991197 -62.958024 32.062679 77.214517 0.260722 -82.732215 -65.340758 12.176585 1.57353 0.0 0.000627 -0.000434 4.832444 4.713088 -30.300056 -34.734289 34.301892 -12.117389 41.702898 -55.950151 119.438641
-1.5117 58.5772 -6.6566 172.98139 -31.094265 -167.931866 -1.632871 7.312954 -96.514596 8.932886 2.363288 84.940676 -12.368787 27.484939 -108.756547 40.885655 24.442341 92.471 -0.004171 -0.0 0.000914 0.001459 -0.0 -3e-06 -28.702438 57.498427 31.081135 47.358998 -3.149013 34.972874 -23.71814 -50.282972 62.095088 -2.91701 6.82969 -0.426124 -171.653501 -9.33627 89.949406 -114.628202 13.818426 52.334923 15.559485 -27.95036 -5.750644 5.081328 13.391587 1.426977 -39.288805 53.365887 32.878517 3.336542 0.218234 0.103508 -145.121576 2.055337 -179.775419 10.053007 -0.124098 -9.005189 10.275757 33.656418 8.863425 -23.426793 -39.998767 -23.622035 -0.117658 -0.714084 0.157917 103.272565 -7.075258 -139.186745 -9.087058 4.404095 134.632154 174.292849 2.793691 -142.104667 85.829031 38.630871 -47.955737 -87.113964 -50.856082 -35.717787 10.571395 15.013481 -6.864836 178.463305 -33.120127 -106.924261 0.219889 0.638384 -0.123057 163.465523 -5.363665 -143.413797 145.119675 0.185834 179.185998 -10.201401 -0.130714 9.015363 81.323237 -51.183426 79.741082 136.021239 -14.582699 134.138412 179.995533 75.75 0.004609 165.60549 6.270743 1.315486 66.404895 83.105969 113.270048 87.972735 -3.309356 179.326048 0.00488 0.000329 0.00488 5.967241 -1.569439 -104.682824 -60.415419 -15.391076 90.543768 113.934531 4.775446 -24.966598
-2.5305999999999997 59.517399999999995 -10.0916 174.957047 -26.43597 -170.583981 0.429873 5.661078 -180.0 -2.471346 6.917163 166.888558 1.387233 12.899149 36.124152 -19.136265 -22.532137 -42.459454 -3.7e-05 0.0 -0.003674 -9.1e-05 -0.0 0.001003 -155.459802 -3.227726 161.777813 -75.946887 54.804976 46.335933 37.210978 -82.350214 -83.76829 169.298916 -20.925325 143.171199 -176.598549 -14.213109 89.6903 1.631641 -57.866255 6.117544 60.463221 -70.52295 15.712852 3.761182 20.104181 -0.252183 -158.521456 -0.192569 142.143928 -167.415586 -17.362981 143.82924 0.000763 0.06366 0.020778 -3.336382 58.704651 15.891532 7.930174 24.811192 7.003555 -20.4921 -37.678471 -20.897061 -2.459927 -18.216342 3.669188 -65.47782 8.531161 -22.365395 -177.082559 -0.843231 -42.297774 172.711078 5.359008 -141.584273 85.829518 38.630357 -47.955357 143.875891 -27.558666 -80.962388 138.494804 4.896235 -114.863919 -1.438588 14.177571 6.360397 82.840979 61.110599 -74.532126 88.543687 63.894536 -80.467532 0.001207 -0.060915 0.018639 156.171255 -15.21895 -173.651561 -25.916279 79.094165 -10.831228 10.03341 -23.513777 10.924253 -179.99737 75.750739 -0.002714 171.157073 11.12387 1.545543 39.339548 71.99478 36.693042 -89.644699 79.308411 5.215919 -0.000859 -0.001097 -0.0 7.087792 -11.700731 -148.486786 -86.750451 -54.698352 175.229158 -94.165712 60.157179 0.420326
-4.1573 61.1619 -14.2987 176.238722 -21.484007 -173.131503 1.592787 7.861188 114.888174 -8.646387 0.00517 -128.695033 1.032182 30.866482 169.068617 -9.405598 45.537649 -163.242075 -0.0023 -0.0 0.002137 0.003335 0.0 0.00133 -33.833706 -85.665975 -55.251032 -0.44021 17.121453 -34.751448 -77.802391 0.468204 144.846901 26.669612 -52.805812 15.854096 -174.052796 -11.718356 89.87818 -122.189179 14.559131 58.18777 -3.529997 5.494574 2.106454 -7.319387 22.741429 6.64235 -167.376335 -28.008484 145.268207 -163.851209 -6.231874 143.123156 -145.120002 0.309896 -179.226138 -152.431537 -24.845324 -175.377121 -1.59969 -4.015635 -1.486472 -94.563573 -51.950801 -93.99698 150.168594 21.5356 -155.276281 42.685315 27.0689 1.51202 -76.200302 -36.901851 93.82725 140.125042 53.252291 -115.764226 176.599132 -14.212783 -89.691163 -170.204628 -26.266575 -100.59932 152.105129 -18.556837 -121.367201 79.148958 57.459684 -61.603961 86.295443 60.960732 -77.857191 163.150516 -4.993057 -143.185894 145.064986 -3.223493 178.112138 155.26383 1.245246 179.385296 150.033998 28.967091 145.932902 -2.938341 2.436731 1.211101 -0.000925 -0.000806 -0.000925 -9.585691 -57.927146 -0.0 55.426956 65.7307 47.376825 -0.605368 40.154988 -111.435264 0.100465 0.000491 0.075349 9.057206 -21.991883 3.584138 163.003793 75.621308 -66.255562 -34.180566 50.363081 -69.4097
-5.9227 63.2992 -18.999299999999998 175.325046 -16.211461 -175.809996 4.954427 12.793744 -0.0 0.966271 -10.681685 -12.975849 -13.718492 23.064325 -84.689826 38.790644 8.515907 88.470983 0.000168 0.0 0.00128 0.000168 0.0 0.00128 -5.824996 24.9372 6.990321 -93.969525 70.924245 152.113622 -153.065861 -45.730246 -81.094179 -3.188417 11.001131 0.049963 4.313158 -4.295914 -0.504759 -105.601803 11.26659 95.873488 60.462813 -70.523134 15.711939 177.121538 -49.087859 105.086289 -0.05899 0.167645 0.032179 -1.304177 12.64024 2.166132 -72.350972 72.97377 90.218638 -88.312393 83.079106 97.300913 -1.177355 -2.985536 -1.091804 -147.278926 11.677382 -143.698495 13.74377 42.431475 -15.569522 -100.497022 -35.812156 -77.245149 15.227849 6.831033 -102.33576 3.310048 -20.267332 4.179231 175.329861 -12.974935 -89.798027 75.585204 6.32772 -23.425852 90.225963 41.074213 -75.797002 -94.554781 -66.258715 -46.305547 -178.062008 -60.77811 -140.971756 173.810986 -34.968486 -143.476588 0.014866 -1.323051 0.416528 156.375028 -25.096452 -174.789149 46.79847 -48.626593 45.558401 145.459519 8.530886 142.330807 -179.991212 75.750482 -0.006013 175.164062 23.300451 127.666088 70.591592 -32.245256 -176.502591 1.432881 -32.989427 70.320151 -0.000812 -0.000382 0.001044 13.482081 -36.621275 21.895645 140.374257 64.369372 -84.351482 61.395827 -53.219152 -25.233392
-7.964200000000001 65.3632 -23.8601 174.379589 -9.425064 179.820468 4.934849 16.226944 11.020275 -1.228297 -9.771711 -21.612918 7.477142 21.927186 98.156957 -34.59521 14.105907 -85.247764 -0.000811 0.0 -0.002443 -0.000811 0.0 -0.002443 -159.211396 -46.728632 170.137005 -82.138139 -80.362181 -53.09822 75.707627 -1.254218 -141.947288 -166.584583 46.253629 139.961067 -166.631357 -4.30486 89.77149 -77.34626 3.303605 27.079237 -10.570818 15.01401 6.863476 -158.980188 -7.356013 110.103222 -160.888649 -7.337531 143.345963 22.343563 -49.881173 2.227437 -145.107248 3.761106 179.692036 11.63431 53.004637 -2.665173 -75.779167 -51.665774 -74.24974 -139.436194 -7.304041 -137.159626 82.106542 68.325192 -85.22139 23.140753 3.63433 -49.026114 -13.887064 34.719287 133.709776 174.243882 4.478005 -141.977299 -88.9282 -50.831467 -37.599873 160.65205 -27.775853 -126.80274 -10.746379 -19.04815 4.725615 106.518479 41.221889 -85.529154 -7.90432 -24.807547 3.014411 -11.291039 -24.949608 1.536929 145.119541 0.185119 179.187455 145.056214 -50.808476 167.340487 15.671847 -28.490358 14.958573 84.789406 -53.74765 84.860462 0.001945 0.001044 0.002918 -3.603882 -41.318658 -5.449112 3.795875 63.04313 25.772098 -154.400235 -2.897679 42.92743 0.00417 0.000678 0.002085 24.998171 -50.827524 20.188901 166.954003 64.091305 -112.309969 -108.5922 24.159043 9.071578
